<svg id="Layer_1" data-name="Layer 1" xmlns="http://www.w3.org/2000/svg" viewBox="0 0 346.14 456.25">
    <defs>
        <style>
            .cls-1 {
                fill: #2E2B31;
            }
        </style>
    </defs>
    <path class="cls-1" d="M172.47,62.13V247.59H158.19V82.45l-27,53.77L75.33,247.59H59.9L172.47,21.87Z" transform="translate(-59.9 -21.87)" />
    <path class="cls-1" d="M-5,.79" transform="translate(-59.9 -21.87)" />
    <path class="cls-1" d="M205.7,48.6c.05,4.17.07,5.43.08,5.88.49,35.64.88,63.6,1.38,99.23v93.88H193.88c-1-73.17-1.85-136.12-2.84-209.28,21.5-14.27,44.5-18.11,66-6.82,2.64,1.39,20.34,8.64,26.89,34.73,7.13,28.37-7.28,60-37.44,77.87,13.94,35,35.33,68.58,49.27,103.61-6.35-.23-9,.16-15.32-.07-14.86-38-37.73-73.39-52.59-111.41,24-8.21,42.41-32.78,42.12-53.92,0-2.39-1.08-21.89-18.12-34.21C238.13,38.17,221.79,39.9,205.7,48.6Z" transform="translate(-59.9 -21.87)" />
    <polygon class="cls-1" points="259.44 143.11 259.44 225.8 244.35 225.8 243.36 3.06 259.44 3.06 259.44 102.64 330.44 12.43 344.83 22.64 274.13 112.18 346.14 225.41 328.39 225.8 259.44 122.04 259.44 143.11" />
    <path class="cls-1" d="M75.43,477.06H59.9V268.7H75.43l-.62,102,82.76-.51.62-101.53h14.28V477.23l-14.28-.17-.62-89.74-82.76.51Z" transform="translate(-59.9 -21.87)" />
    <path class="cls-1" d="M181.09,444.26" transform="translate(-59.9 -21.87)" />
    <path class="cls-1" d="M278.86,476.84H264.57v-99l-.13,8,1-55.88L195.22,475.44H176.67l102.19-207Z" transform="translate(-59.9 -21.87)" />
    <path class="cls-1" d="M188.58,291.74" transform="translate(-59.9 -21.87)" />
    <path class="cls-1" d="M345.82,478.13l-44-121.64.71,119.8H288.26V268.7C345.82,436.64,345.82,436,345.82,436L403.38,267.1V475.31H389.1l.67-114.57L348.06,478.13" transform="translate(-59.9 -21.87)" />
</svg>